Coordinates
version=1
nRows=28
nColumns=38
inDegrees=no

Units are S.I. units (second, meters, Newtons, ...)
If the header above contains a line with 'inDegrees', this indicates whether rotational values are in degrees (yes) or radians (no).

endheader
time	pelvis_tilt	pelvis_list	pelvis_rotation	pelvis_tx	pelvis_ty	pelvis_tz	hip_flexion_r	hip_adduction_r	hip_rotation_r	knee_angle_r	ankle_angle_r	subtalar_angle_r	mtp_angle_r	hip_flexion_l	hip_adduction_l	hip_rotation_l	knee_angle_l	ankle_angle_l	subtalar_angle_l	mtp_angle_l	lumbar_extension	lumbar_bending	lumbar_rotation	arm_flex_r	arm_add_r	arm_rot_r	elbow_flex_r	pro_sup_r	wrist_flex_r	wrist_dev_r	arm_flex_l	arm_add_l	arm_rot_l	elbow_flex_l	pro_sup_l	wrist_flex_l	wrist_dev_l
3.35	-0.185399	1.24606	1.75252	0.68076	0.684971	1.00168	0.231058	-0.0761572	0.0785382	0.888306	-0.329664	0	0	0.569332	0.0665102	-0.191981	0.459279	-0.358192	0	0	0.210595	-0.182983	0.210321	0.621252	-0.523133	0.603059	1.25449	1.5708	0	0	1.04318	-0.138588	1.33234	0.882452	1.5708	0	0
3.36	-0.182256	1.25328	1.75517	0.678793	0.692977	1.00315	0.244019	-0.0723889	0.0855645	0.93044	-0.347399	0	0	0.549979	0.0679373	-0.189139	0.452736	-0.356226	0	0	0.200714	-0.183401	0.202154	0.622287	-0.524345	0.604623	1.25253	1.5708	0	0	1.04388	-0.137314	1.33438	0.882575	1.5708	0	0
3.37	-0.177687	1.26005	1.75595	0.676894	0.700894	1.00458	0.25857	-0.0680692	0.0915805	0.97229	-0.36457	0	0	0.531158	0.0688955	-0.184962	0.445433	-0.353961	0	0	0.191441	-0.18295	0.194265	0.623892	-0.525482	0.606786	1.25033	1.5708	0	0	1.04424	-0.136146	1.3357	0.882618	1.5708	0	0
3.38	-0.172302	1.2679	1.75512	0.675034	0.708587	1.00606	0.273318	-0.0636296	0.0960593	1.01381	-0.375167	0	0	0.511308	0.0690668	-0.180943	0.437445	-0.351737	0	0	0.180306	-0.181584	0.18705	0.626869	-0.52739	0.609795	1.24847	1.5708	0	0	1.04522	-0.134761	1.33624	0.88258	1.5708	0	0
3.39	-0.166238	1.27633	1.75321	0.673214	0.716148	1.00755	0.288285	-0.0596043	0.0971654	1.05474	-0.375558	0	0	0.490719	0.0687318	-0.177682	0.428718	-0.349682	0	0	0.168378	-0.179609	0.180033	0.63069	-0.529281	0.61353	1.24635	1.5708	0	0	1.04607	-0.133487	1.33591	0.882441	1.5708	0	0
3.4	-0.18	1.29597	1.76413	0.671778	0.72462	1.01025	0.288572	-0.0587637	0.100264	1.08917	-0.364869	0	0	0.45237	0.067787	-0.192897	0.411936	-0.349974	0	0	0.14403	-0.179731	0.179098	0.636816	-0.530899	0.618576	1.24339	1.5708	0	0	1.04739	-0.132349	1.33422	0.881808	1.5708	0	0
3.41	-0.152011	1.29479	1.74614	0.669709	0.730817	1.01059	0.317164	-0.0508013	0.0964075	1.12924	-0.348713	0	0	0.448202	0.0662418	-0.176121	0.41128	-0.347031	0	0	0.142245	-0.1737	0.166702	0.64047	-0.533034	0.622413	1.24185	1.5708	0	0	1.04751	-0.131155	1.33291	0.881677	1.5708	0	0
3.42	-0.1404	1.30061	1.73815	0.667974	0.737945	1.01179	0.33645	-0.0465993	0.0941281	1.16269	-0.331452	0	0	0.431485	0.0647024	-0.175932	0.404052	-0.344696	0	0	0.133839	-0.170001	0.160554	0.644142	-0.534818	0.626753	1.23946	1.5708	0	0	1.04696	-0.129698	1.33113	0.880671	1.5708	0	0
3.43	-0.129014	1.30718	1.72975	0.666333	0.745002	1.01308	0.355052	-0.0427764	0.0917144	1.19229	-0.316689	0	0	0.413567	0.0628149	-0.178103	0.396048	-0.342863	0	0	0.124572	-0.166115	0.155032	0.648627	-0.536369	0.63141	1.23652	1.5708	0	0	1.04673	-0.127919	1.32963	0.879154	1.5708	0	0
3.44	-0.116972	1.31328	1.72015	0.664748	0.751964	1.01431	0.374376	-0.039287	0.089005	1.21821	-0.306764	0	0	0.396019	0.0607093	-0.181121	0.38782	-0.341403	0	0	0.115983	-0.161853	0.15012	0.653463	-0.537439	0.6361	1.23318	1.5708	0	0	1.04637	-0.125757	1.32808	0.877022	1.5708	0	0
3.45	-0.104405	1.31888	1.70955	0.663195	0.758844	1.01548	0.394161	-0.0361151	0.0861338	1.24002	-0.300882	0	0	0.37885	0.0585248	-0.183953	0.379058	-0.340433	0	0	0.108057	-0.157394	0.145542	0.658977	-0.538319	0.641847	1.22931	1.5708	0	0	1.0459	-0.123959	1.32599	0.874892	1.5708	0	0
3.46	-0.091628	1.32396	1.69825	0.661654	0.765704	1.01662	0.414083	-0.0330763	0.0833202	1.25742	-0.2966	0	0	0.36168	0.0564213	-0.185894	0.368907	-0.340033	0	0	0.100481	-0.153308	0.141761	0.664136	-0.539594	0.647339	1.22582	1.5708	0	0	1.04565	-0.122307	1.32378	0.872995	1.5708	0	0
3.47	-0.0799218	1.32872	1.68778	0.66014	0.772559	1.01775	0.433687	-0.0304671	0.0803653	1.27045	-0.291276	0	0	0.344205	0.0547876	-0.186587	0.357405	-0.340233	0	0	0.0934518	-0.149458	0.138243	0.669555	-0.540626	0.653404	1.22171	1.5708	0	0	1.04523	-0.120538	1.32181	0.87061	1.5708	0	0
3.48	-0.0690023	1.33366	1.67741	0.658669	0.779411	1.01892	0.452718	-0.0285248	0.0769322	1.27976	-0.284512	0	0	0.32607	0.0532539	-0.187368	0.345158	-0.340968	0	0	0.0863144	-0.145681	0.135087	0.675535	-0.541572	0.660363	1.21733	1.5708	0	0	1.04471	-0.118966	1.31963	0.868232	1.5708	0	0
3.49	-0.0602504	1.33875	1.66839	0.65722	0.786248	1.02008	0.471467	-0.0276238	0.0746395	1.28649	-0.277604	0	0	0.307439	0.0522897	-0.188336	0.332547	-0.342075	0	0	0.0789723	-0.142239	0.132311	0.682031	-0.542243	0.667661	1.21315	1.5708	0	0	1.04406	-0.118059	1.31669	0.866585	1.5708	0	0
3.5	-0.0527551	1.3427	1.66061	0.655759	0.793038	1.02107	0.491064	-0.0273882	0.0731875	1.29062	-0.271475	0	0	0.290076	0.052124	-0.18801	0.320176	-0.343158	0	0	0.0727127	-0.139621	0.130207	0.687136	-0.543588	0.672866	1.21046	1.5708	0	0	1.04374	-0.116715	1.31419	0.865368	1.5708	0	0
3.51	-0.046285	1.34713	1.65337	0.654357	0.799873	1.02204	0.508744	-0.0265551	0.0703309	1.28978	-0.265146	0	0	0.271817	0.0522429	-0.187715	0.307184	-0.344263	0	0	0.0662797	-0.137024	0.128524	0.692583	-0.544705	0.678474	1.20742	1.5708	0	0	1.04333	-0.115359	1.31182	0.863924	1.5708	0	0
3.52	-0.0388648	1.35211	1.64525	0.653052	0.806761	1.023	0.523451	-0.023936	0.0648036	1.2819	-0.257087	0	0	0.252853	0.0520689	-0.186997	0.293877	-0.345482	0	0	0.0595679	-0.134212	0.126587	0.698684	-0.545418	0.685224	1.20375	1.5708	0	0	1.04303	-0.114512	1.3098	0.862541	1.5708	0	0
3.53	-0.0307111	1.35644	1.63642	0.651831	0.813561	1.02382	0.538925	-0.0226002	0.060051	1.27208	-0.250719	0	0	0.235056	0.0517043	-0.185758	0.281198	-0.346633	0	0	0.0536952	-0.131179	0.124199	0.705692	-0.545621	0.693475	1.19934	1.5708	0	0	1.04269	-0.114485	1.3075	0.861689	1.5708	0	0
3.54	-0.020486	1.35941	1.62561	0.650688	0.820276	1.02445	0.556012	-0.0223014	0.0556838	1.26072	-0.246401	0	0	0.219252	0.0508471	-0.183546	0.26935	-0.347568	0	0	0.049072	-0.128195	0.122258	0.711655	-0.546363	0.700542	1.19597	1.5708	0	0	1.04265	-0.11413	1.30536	0.861197	1.5708	0	0
3.55	-0.00913532	1.3617	1.61364	0.649621	0.82696	1.02494	0.572664	-0.0217677	0.0509448	1.24601	-0.241151	0	0	0.204307	0.0496414	-0.181134	0.257771	-0.348417	0	0	0.0455348	-0.124927	0.120331	0.717402	-0.547086	0.70785	1.19273	1.5708	0	0	1.04279	-0.113781	1.30392	0.860355	1.5708	0	0
3.56	0.00209542	1.36331	1.60189	0.648587	0.833622	1.02528	0.58883	-0.021543	0.0455504	1.22832	-0.234651	0	0	0.19013	0.048615	-0.178887	0.24639	-0.34919	0	0	0.0429954	-0.121641	0.118282	0.722782	-0.547365	0.71435	1.18944	1.5708	0	0	1.04316	-0.113403	1.30312	0.859287	1.5708	0	0
3.57	0.0120764	1.36426	1.59144	0.647577	0.840252	1.02549	0.604872	-0.0221847	0.0390166	1.20854	-0.227759	0	0	0.176686	0.0481321	-0.177019	0.234971	-0.34993	0	0	0.041257	-0.118518	0.116247	0.728016	-0.547557	0.720473	1.18657	1.5708	0	0	1.04344	-0.113244	1.30214	0.858616	1.5708	0	0
3.58	0.0207505	1.36436	1.58232	0.646621	0.846887	1.02556	0.620623	-0.023266	0.0313849	1.18678	-0.220408	0	0	0.164041	0.0480692	-0.175287	0.223328	-0.35092	0	0	0.0403157	-0.116024	0.114977	0.731817	-0.548186	0.724468	1.18488	1.5708	0	0	1.04365	-0.113002	1.30122	0.858618	1.5708	0	0
3.59	0.0292474	1.36404	1.57333	0.645757	0.85353	1.02553	0.635545	-0.0244537	0.0228695	1.16297	-0.213581	0	0	0.151796	0.0479413	-0.173841	0.211779	-0.352022	0	0	0.0399805	-0.113552	0.113871	0.735273	-0.548485	0.72815	1.18305	1.5708	0	0	1.04345	-0.113208	1.29996	0.85912	1.5708	0	0
3.6	0.037252	1.36367	1.56478	0.644986	0.860157	1.02539	0.649639	-0.0261005	0.0139466	1.13697	-0.207796	0	0	0.139584	0.0477879	-0.172752	0.200092	-0.352996	0	0	0.0398064	-0.111072	0.112841	0.738668	-0.548724	0.731972	1.18149	1.5708	0	0	1.04306	-0.113706	1.29824	0.859959	1.5708	0	0
3.61	0.044091	1.36282	1.5573	0.644279	0.866776	1.02512	0.663329	-0.028149	0.00475028	1.10883	-0.202336	0	0	0.127798	0.0478359	-0.171846	0.188133	-0.354204	0	0	0.0403041	-0.108711	0.111943	0.741662	-0.54912	0.735551	1.18069	1.5708	0	0	1.04252	-0.114268	1.29619	0.860971	1.5708	0	0
3.62	0.0505319	1.36108	1.55037	0.643637	0.873438	1.02473	0.676566	-0.0300707	-0.00547534	1.07858	-0.19604	0	0	0.116997	0.047908	-0.170615	0.176346	-0.355529	0	0	0.0417323	-0.106859	0.111435	0.743166	-0.549934	0.737277	1.18112	1.5708	0	0	1.04205	-0.114545	1.29436	0.862212	1.5708	0	0
